<?xml version="1.0" encoding="UTF-8"?>
<svg version="1.1" xmlns="http://www.w3.org/2000/svg" width="160" height="160">
<path d="M0 0 C4.17999521 1.55864228 6.04014684 2.7932869 8.6875 6.375 C9.3722005 9.10873013 9.54313308 11.53578396 9.6875 14.375 C9.13320312 14.76171875 8.57890625 15.1484375 8.0078125 15.546875 C6.92113281 16.32804687 6.92113281 16.32804687 5.8125 17.125 C5.09320313 17.63546875 4.37390625 18.1459375 3.6328125 18.671875 C0.64114302 21.29108763 -0.1989675 23.46674004 -0.6875 27.375 C-1.44383508 31.00540837 -2.28957639 32.25078341 -5.3125 34.375 C-8.69501344 34.80681023 -10.61415046 34.76270849 -13.61328125 33.09765625 C-16.45749167 32.01097135 -16.45749167 32.01097135 -19.390625 33.97265625 C-20.46245996 34.77520594 -21.51954181 35.59776528 -22.5625 36.4375 C-23.10390625 36.83388672 -23.6453125 37.23027344 -24.203125 37.63867188 C-26.76210795 39.61868493 -28.18178969 40.89735114 -29.046875 44.05859375 C-29.13453125 44.82300781 -29.2221875 45.58742187 -29.3125 46.375 C-31.70548955 48.76798955 -33.05490865 48.95211777 -36.328125 49.6640625 C-37.33230469 49.88320313 -38.33648437 50.10234375 -39.37109375 50.328125 C-40.95083984 50.66070312 -40.95083984 50.66070312 -42.5625 51 C-43.60019531 51.22945312 -44.63789062 51.45890625 -45.70703125 51.6953125 C-58.55525695 54.45201993 -58.55525695 54.45201993 -62.25 52.1875 C-63.73421511 49.65560363 -62.97030294 48.14684548 -62.3125 45.375 C-57.37314453 43.72854818 -52.59162183 42.37750067 -47.44140625 41.6015625 C-36.17267941 40.29478253 -36.17267941 40.29478253 -27.5625 33.625 C-26.16441465 31.34103641 -26.16441465 31.34103641 -25.3125 29.375 C-26.61380859 29.81199219 -26.61380859 29.81199219 -27.94140625 30.2578125 C-37.97762987 33.47732984 -48.16502864 35.68500806 -58.5 37.6875 C-59.18571075 37.82214661 -59.87142151 37.95679321 -60.57791138 38.09552002 C-73.12254195 40.54565635 -73.12254195 40.54565635 -79.3125 40.375 C-81.46919506 53.77595363 -82.633289 67.05890349 -82.6875 80.625 C-82.70103516 81.90769775 -82.71457031 83.19039551 -82.72851562 84.51196289 C-82.67665338 95.58671274 -81.50985114 106.5064373 -74.3125 115.375 C-71.8772912 117.59533744 -70.45784815 118.32655062 -67.3125 119.375 C-68.58043912 123.31969949 -70.99656609 124.83963772 -74.515625 126.671875 C-77.26204955 127.74656287 -78.61346118 127.5515041 -81.3125 126.375 C-88.32513556 121.8460062 -91.63416382 114.87192356 -93.5625 106.875 C-93.83726625 105.37933844 -94.08755959 103.87896204 -94.3125 102.375 C-94.42335938 101.66472656 -94.53421875 100.95445313 -94.6484375 100.22265625 C-97.09599053 80.87375727 -98.19984222 49.14968443 -89.3125 31.375 C-86.3789595 30.52744346 -83.48732358 29.80067402 -80.51171875 29.1328125 C-79.60613724 28.92316864 -78.70055573 28.71352478 -77.76753235 28.49752808 C-75.8339585 28.05156148 -73.89944746 27.60964247 -71.96411133 27.17138672 C-69.0762646 26.51727433 -66.19127589 25.85170881 -63.30664062 25.18359375 C-53.87959537 23.01238882 -44.4338302 20.93528123 -34.95703125 18.9921875 C-34.09921555 18.81277618 -33.24139984 18.63336487 -32.35758972 18.44851685 C-30.35115777 18.04524886 -28.33256176 17.70324494 -26.3125 17.375 C-25.9825 17.705 -25.6525 18.035 -25.3125 18.375 C-25.02375 17.26125 -24.735 16.1475 -24.4375 15 C-23.625 13.046875 -23.625 13.046875 -22.3125 11.375 C-19.7961647 10.55369612 -17.37857577 10.24209762 -14.7578125 9.890625 C-11.11972925 9.12348924 -9.5184133 7.2702612 -7.3125 4.375 C-6.61669733 3.05663705 -5.94025567 1.72708914 -5.3125 0.375 C-3.3125 -0.625 -3.3125 -0.625 0 0 Z M-23.3125 23.375 C-22.9825 24.695 -22.6525 26.015 -22.3125 27.375 C-21.9825 26.715 -21.6525 26.055 -21.3125 25.375 C-21.9725 24.715 -22.6325 24.055 -23.3125 23.375 Z " fill="#13A3DF" transform="translate(120.3125,7.625)"/>
<path d="M0 0 C1.01027397 20.60958904 1.01027397 20.60958904 -5 28 C-9.51199751 32.51199751 -15.18509915 34.24066307 -21.0625 36.375 C-22.12291504 36.7656665 -23.18333008 37.15633301 -24.27587891 37.55883789 C-31.08755332 40.0341908 -37.9370512 42.34214185 -44.875 44.4375 C-45.65109619 44.67194824 -46.42719238 44.90639648 -47.22680664 45.14794922 C-56.06059605 47.72411412 -64.40218907 49.32449508 -73.625 49.125 C-74.43839844 49.11597656 -75.25179687 49.10695312 -76.08984375 49.09765625 C-78.06002841 49.07447761 -80.03005765 49.03862632 -82 49 C-82 48.34 -82 47.68 -82 47 C-80.2421875 45.7734375 -80.2421875 45.7734375 -77.875 44.375 C-72.20734508 40.66477692 -67.82344508 36.75612112 -66.32507324 29.92134094 C-66.10371704 28.81719345 -65.88236084 27.71304596 -65.65429688 26.57543945 C-64.45603709 22.59518126 -63.76604375 20.56386445 -60.39013672 18.07894897 C-56.91902692 16.56888764 -53.47492677 15.42510002 -49.84375 14.35546875 C-48.53480714 13.9300731 -47.22732254 13.50016662 -45.92126465 13.06599426 C-42.49734219 11.94190021 -39.05650387 10.88305527 -35.6083374 9.83612061 C-32.10167942 8.75731291 -28.61701751 7.6116352 -25.12890625 6.47460938 C-20.03125349 4.82795951 -14.92798931 3.20134694 -9.80664062 1.62963867 C-8.77945923 1.31355148 -7.75227783 0.99746429 -6.69396973 0.67179871 C-4 0 -4 0 0 0 Z " fill="#14A3DE" transform="translate(129,87)"/>
<path d="M0 0 C4.29 0 8.58 0 13 0 C12.01 15.51 11.02 31.02 10 47 C-1 51 -1 51 -3 51 C-2.01 34.17 -1.02 17.34 0 0 Z " fill="#13A3DF" transform="translate(106,42)"/>
<path d="M0 0 C2 3 2 3 1.75 5.0625 C1 7 1 7 -1 9 C-4.99395183 10.28858031 -9.10390696 11.1633426 -13.1875 12.125 C-14.31220703 12.40214844 -15.43691406 12.67929688 -16.59570312 12.96484375 C-22.17821904 14.29729611 -27.25602455 15.38237753 -33 15 C-33.66 13.35 -34.32 11.7 -35 10 C-32.00812056 6.5601813 -29.77109222 5.32735397 -25.3515625 4.296875 C-24.26359375 4.0390625 -23.175625 3.78125 -22.0546875 3.515625 C-20.92289063 3.26296875 -19.79109375 3.0103125 -18.625 2.75 C-17.5009375 2.481875 -16.376875 2.21375 -15.21875 1.9375 C-4.8676468 -0.46062793 -4.8676468 -0.46062793 0 0 Z " fill="#14A5E0" transform="translate(90,86)"/>
<path d="M0 0 C2 2 2 2 2.375 4.4375 C2 7 2 7 0.34765625 8.56689453 C-4.26669897 11.38368583 -9.75145433 11.87310842 -15 12.875 C-16.18851563 13.12507813 -17.37703125 13.37515625 -18.6015625 13.6328125 C-19.74367188 13.85453125 -20.88578125 14.07625 -22.0625 14.3046875 C-23.10535156 14.51077637 -24.14820313 14.71686523 -25.22265625 14.92919922 C-28.54833729 15.01397836 -29.62846092 14.24713281 -32 12 C-31.25 7.25 -31.25 7.25 -29 5 C-26.75683594 4.31396484 -26.75683594 4.31396484 -23.984375 3.7109375 C-22.98019531 3.49179687 -21.97601563 3.27265625 -20.94140625 3.046875 C-19.88824219 2.82515625 -18.83507812 2.6034375 -17.75 2.375 C-16.71230469 2.14554688 -15.67460938 1.91609375 -14.60546875 1.6796875 C-4.42044043 -0.50560593 -4.42044043 -0.50560593 0 0 Z " fill="#14A5E1" transform="translate(88,60)"/>
<path d="M0 0 C2 2 2 2 2.3125 4.5 C2.209375 5.325 2.10625 6.15 2 7 C-2.39944314 9.93296209 -7.12354795 10.53237329 -12.25 11.625 C-13.27480469 11.85445312 -14.29960938 12.08390625 -15.35546875 12.3203125 C-20.63955171 13.46281692 -25.59035317 14.51172335 -31 14 C-31.66 13.34 -32.32 12.68 -33 12 C-32.625 8.875 -32.625 8.875 -32 6 C-27.32459052 4.81824006 -22.64712551 3.64550052 -17.96582031 2.48730469 C-16.36951874 2.09159953 -14.77441662 1.69105793 -13.1796875 1.2890625 C-8.71621415 0.21596264 -4.62656656 -0.3776789 0 0 Z " fill="#14A5E1" transform="translate(88,74)"/>
<path d="M0 0 C2.33944736 0.28730055 4.6739143 0.61936779 7 1 C7.6875 3.3125 7.6875 3.3125 8 6 C6.875 7.8125 6.875 7.8125 5 9 C2.4375 9.375 2.4375 9.375 0 9 C-2 6 -2 6 -1.6875 3.375 C-1 1 -1 1 0 0 Z " fill="#12A1DE" transform="translate(45,55)"/>
<path d="M0 0 C2.375 0.6875 2.375 0.6875 3.375 1.6875 C3.41580783 3.68708364 3.41754356 5.68795254 3.375 7.6875 C1.125 8.875 1.125 8.875 -1.625 9.6875 C-3.9375 8.625 -3.9375 8.625 -5.625 6.6875 C-6.0625 4.125 -6.0625 4.125 -5.625 1.6875 C-2.625 -0.3125 -2.625 -0.3125 0 0 Z " fill="#13A6E1" transform="translate(47.625,68.3125)"/>
<path d="M0 0 C2.5 0.0625 2.5 0.0625 5 1 C6.3125 3.5625 6.3125 3.5625 7 6 C5.8125 7.5625 5.8125 7.5625 4 9 C0.65807308 8.75546876 -0.60543557 8.39456443 -3 6 C-2.63318342 3.06546739 -2.13562754 2.13562754 0 0 Z " fill="#13A1E3" transform="translate(44,82)"/>
<path d="M0 0 C1.65 0.99 3.3 1.98 5 3 C4.125 7.875 4.125 7.875 3 9 C0.5625 9.1875 0.5625 9.1875 -2 9 C-2.66 8.34 -3.32 7.68 -4 7 C-3.8125 4.5 -3.8125 4.5 -3 2 C-2.01 1.34 -1.02 0.68 0 0 Z " fill="#14A7E2" transform="translate(46,95)"/>
<path d="M0 0 C0.33 0 0.66 0 1 0 C1.33 2.64 1.66 5.28 2 8 C4.31 7.34 6.62 6.68 9 6 C9 6.99 9 7.98 9 9 C6.03 9.66 3.06 10.32 0 11 C0 7.37 0 3.74 0 0 Z " fill="#15AAE8" transform="translate(105,81)"/>
</svg>
